<?xml version="1.0" encoding="iso-8859-1"?>
<!-- Generator: Adobe Illustrator 19.0.0, SVG Export Plug-In . SVG Version: 6.00 Build 0)  -->
<svg version="1.1" id="Capa_1" xmlns="http://www.w3.org/2000/svg" xmlns:xlink="http://www.w3.org/1999/xlink" x="0px" y="0px"
	 viewBox="0 0 460 460" style="enable-background:new 0 0 460 460;" xml:space="preserve">
<g>
	<path style="fill:#EA6453;" d="M229.365,420c-71.069-0.005-129.101-57.827-129.364-128.896h40.002
		c0.262,49.027,40.319,88.893,89.362,88.896H230V0c0,0-107.053,145.323-136.146,189.029
		c-19.727,29.637-33.994,63.876-33.853,102.222C60.347,384.793,136.458,460.344,230,459.999V420H229.365z"/>
	<path style="fill:#FFFFFF;" d="M229.365,380c-49.043-0.003-89.1-39.868-89.362-88.896h-40.002
		c0.263,71.068,58.295,128.891,129.364,128.896h1.272v-40H229.365z"/>
	<path style="fill:#EF1F4B;" d="M366.146,189.029C345.168,157.514,230,0,230,0v459.999c93.542,0.345,169.654-75.206,169.999-168.748
		C400.14,252.905,385.873,218.666,366.146,189.029z"/>
</g>
<g>
</g>
<g>
</g>
<g>
</g>
<g>
</g>
<g>
</g>
<g>
</g>
<g>
</g>
<g>
</g>
<g>
</g>
<g>
</g>
<g>
</g>
<g>
</g>
<g>
</g>
<g>
</g>
<g>
</g>
</svg>
