<?xml version="1.0" encoding="utf-8"?>
<!-- Generator: Adobe Illustrator 24.3.0, SVG Export Plug-In . SVG Version: 6.00 Build 0)  -->
<svg version="1.1" id="Layer_1" xmlns="http://www.w3.org/2000/svg" xmlns:xlink="http://www.w3.org/1999/xlink" x="0px" y="0px"
	 viewBox="0 0 1440 320" style="enable-background:new 0 0 1440 320;" xml:space="preserve">
<style type="text/css">
	.st0{fill:#95CFD8;fill-opacity:0.6;}
</style>
<path class="st0" d="M3.4,107L3.4,107c11.4,16.2,29,30.9,48.8,29.5C166,128.5,95.9,264,143,307.9c48,40.2,85-52.3,133-69
	c48-17.4,108,11.3,156-28.9c48-39.7,96-73.8,144-102.3c48-28,96-51.4,144-28.3c48,22.7,96,90.9,144,124.9s96,34.1,144,34.1
	s96,0,144,5.6c48,6.1,96,16.7,144,0c48-17.4,96-62.1,120-85.2l18.3-17.3c3.6-3.4,5.7-8.2,5.7-13.2V18.2c0-10.1-8.2-18.2-18.2-18.2
	h-5.8c-24,0-72,0-120,0s-96,0-144,0s-96,0-144,0s-96,0-144,0s-96,0-144,0s-96,0-144,0s-96,0-144,0s-96,0-144,0s-96,0-144,0
	S48,0,24,0l0,0C10.9,0,7.8,38.5,8,53c0,0.4,2.1-25.8,1.9-25.5L0,96.4C0,100.2,1.2,103.9,3.4,107z"/>
</svg>
