<?xml version="1.0" standalone="no"?><svg xmlns="http://www.w3.org/2000/svg" viewBox="0 0 1440 320"><path fill="#90e0ef" fill-opacity="1" d="M0,256L20,261.3C40,267,80,277,120,266.7C160,256,200,224,240,176C280,128,320,64,360,64C400,64,440,128,480,165.3C520,203,560,213,600,181.3C640,149,680,75,720,69.3C760,64,800,128,840,160C880,192,920,192,960,208C1000,224,1040,256,1080,240C1120,224,1160,160,1200,149.3C1240,139,1280,181,1320,186.7C1360,192,1400,160,1420,144L1440,128L1440,320L1420,320C1400,320,1360,320,1320,320C1280,320,1240,320,1200,320C1160,320,1120,320,1080,320C1040,320,1000,320,960,320C920,320,880,320,840,320C800,320,760,320,720,320C680,320,640,320,600,320C560,320,520,320,480,320C440,320,400,320,360,320C320,320,280,320,240,320C200,320,160,320,120,320C80,320,40,320,20,320L0,320Z"></path></svg>