<?xml version="1.0" encoding="utf-8"?>
<!-- Generator: Adobe Illustrator 24.3.0, SVG Export Plug-In . SVG Version: 6.00 Build 0)  -->
<svg version="1.1" id="Layer_1" xmlns="http://www.w3.org/2000/svg" xmlns:xlink="http://www.w3.org/1999/xlink" x="0px" y="0px"
	 viewBox="0 0 1440 320" style="enable-background:new 0 0 1440 320;" xml:space="preserve">
<style type="text/css">
	.st0{fill:#F7DAE1;fill-opacity:0.6;}
</style>
<path class="st0" d="M315.8,217.2L315.8,217.2c-3-16.2-16.6-21.6-21.8-20.2c-30.1,8-7.8-87.9-20.2-131.8
	C261,25,256.3,68.6,243.6,85.3c-12.6,17.3-40.3-35.9-54.4,21.6c-0.2,0.7-0.4,1.5-0.6,2.2c-12.5,37.5-17.2-20.1-29.8,8.2
	c-12.7,28-8.4,48.1-21.2,25c-12.7-22.7-55.9,43-68.6,9s-6.7-65.4-19.4-65.4s-25.4,0-38.1-5.6c-12.7-6.1-25.4-16.7-38.1,0
	C-39.3,97.6,6.4,124.9,0,148l-14,51c-0.9,3.1-10.7,21.7-12.7,29c-0.5,1.7-1,3.4-1.8,5l-32.6,65.7c-3.1,6.2-4,13.4-2.2,20.1
	c0.9,3.3,2.1,5.3,3.4,5.3h1.5c6.4,0,19.1,0,31.8,0s25.4,0,38.1,0s25.4,0,38.1,0s25.4,0,38.1,0s25.4,0,38.2,0s25.4,0,38.2,0
	c12.7,0,25.4,0,38.1,0c12.7,0,25.4,0,38.1,0c12.7,0,25.4,0,38.2,0c12.7,0,25.4,0,31.8,0l0,0c3.5,0,4.3-38.5,4.2-53
	c0-0.4-0.6,25.8-0.5,25.5l2.6-68.9C316.7,224,316.4,220.3,315.8,217.2z"/>
</svg>
