<?xml version="1.0" encoding="utf-8"?>
<!-- Generator: Adobe Illustrator 24.3.0, SVG Export Plug-In . SVG Version: 6.00 Build 0)  -->
<svg version="1.1" id="Layer_1" xmlns="http://www.w3.org/2000/svg" xmlns:xlink="http://www.w3.org/1999/xlink" x="0px" y="0px"
	 viewBox="0 0 1440 320" style="enable-background:new 0 0 1440 320;" xml:space="preserve">
<style type="text/css">
	.st0{fill:#DD6876;fill-opacity:0.3;}
</style>
<path class="st0" d="M338,257.8h4.2c4.3,0,12.8,0,21.2-5.2c8.4-5.2,16.8-15.6,25.5-12.1c8.4,3.3,16.8,20.8,25.5,27.7
	c8.4,6.8,16.8,3.6,25.2,1.7c8.6-1.7,17.1-1.7,25.5-5.2c8.6-3.3,17.1-10.5,25.5-12.1c8.5-1.6,17.1,1.6,25.5,8.7
	c8.5,6.9,17.1,17.3,25.5,25.9c8.4,8.5,16.8,15.7,25.5,6.9c8.4-8.8,16.8-32.7,25.5-32.8c8.4,0.1,16.8,24.1,25.2,27.7
	c8.6,3.6,17.1-13.9,25.5-20.8c8.6-6.8,17.1-3.6,25.5-6.9c8.5-3.5,17.1-13.8,21.3-19l4.2-5.2v83h-4.2c-4.3,0-12.8,0-21.2,0
	c-8.4,0-16.8,0-25.5,0c-8.4,0-16.8,0-25.5,0c-8.4,0-16.8,0-25.2,0c-8.6,0-17.1,0-25.5,0c-8.6,0-17.1,0-25.5,0c-8.5,0-17.1,0-25.5,0
	c-8.5,0-17.1,0-25.5,0c-8.4,0-16.8,0-25.5,0c-8.4,0-16.8,0-25.5,0c-8.4,0-16.8,0-25.2,0c-8.6,0-17.1,0-25.5,0c-8.6,0-17.1,0-25.5,0
	c-8.5,0-17.1,0-21.3,0H338V257.8z"/>
</svg>
