<?xml version="1.0" encoding="utf-8"?>
<!-- Generator: Adobe Illustrator 24.3.0, SVG Export Plug-In . SVG Version: 6.00 Build 0)  -->
<svg version="1.1" id="Layer_1" xmlns="http://www.w3.org/2000/svg" xmlns:xlink="http://www.w3.org/1999/xlink" x="0px" y="0px"
	 viewBox="0 0 1440 320" style="enable-background:new 0 0 1440 320;" xml:space="preserve">
<style type="text/css">
	.st0{fill:#A4161A;fill-opacity:0.6;}
</style>
<path class="st0" d="M0,102.3l24,34.1c24,34.1,72,102.3,120,142c48,40.2,96,50.8,144,34.1c48-17.4,96-62.1,144-102.3
	c48-39.7,96-73.8,144-102.3c48-28,96-51.4,144-28.3c48,22.7,96,90.9,144,124.9s96,34.1,144,34.1s96,0,144,5.6c48,6.1,96,16.7,144,0
	c48-17.4,96-62.1,120-85.2l24-22.7V0h-24c-24,0-72,0-120,0s-96,0-144,0s-96,0-144,0s-96,0-144,0s-96,0-144,0s-96,0-144,0
	s-96,0-144,0s-96,0-144,0s-96,0-144,0S48,0,24,0H0V102.3z"/>
</svg>
