<?xml version="1.0" encoding="utf-8"?>
<!-- Generator: Adobe Illustrator 24.3.0, SVG Export Plug-In . SVG Version: 6.00 Build 0)  -->
<svg version="1.1" id="Layer_1" xmlns="http://www.w3.org/2000/svg" xmlns:xlink="http://www.w3.org/1999/xlink" x="0px" y="0px"
	 viewBox="0 0 1440 320" style="enable-background:new 0 0 1440 320;" xml:space="preserve">
<style type="text/css">
	.st0{fill:#BDF0F4;}
</style>
<path class="st0" d="M0,123l16.4,62.2c4.1,15.4,24.4,18.7,33.1,5.4c8.1-12.3,18.7-25.8,37.5-30.6c40-10.7,113,64,153,16
	S320,64,360,64s80,64,120,101.3c40,37.7,80,47.7,120,16C640,149,680,75,720,69.3C760,64,800,128,840,160s80,32,120,48s80,48,120,32
	s80-80,120-90.7c40-10.3,80,31.7,120,37.4c40,5.3,80-26.7,100-42.7l20-16v192h-20c-20,0-60,0-100,0s-80,0-120,0s-80,0-120,0
	s-80,0-120,0s-80,0-120,0s-80,0-120,0s-80,0-120,0s-80,0-120,0s-80,0-120,0s-80,0-120,0s-80,0-120,0s-80,0-100,0H0V123z"/>
</svg>
