<?xml version="1.0" encoding="utf-8"?>
<!-- Generator: Adobe Illustrator 24.3.0, SVG Export Plug-In . SVG Version: 6.00 Build 0)  -->
<svg version="1.1" id="Layer_1" xmlns="http://www.w3.org/2000/svg" xmlns:xlink="http://www.w3.org/1999/xlink" x="0px" y="0px"
	 viewBox="0 0 1440 320" style="enable-background:new 0 0 1440 320;" xml:space="preserve">
<style type="text/css">
	.st0{fill:#F7DAE1;fill-opacity:0.6;}
</style>
<path class="st0" d="M575.8,172.5L575.8,172.5c-3-16.2-16.6-21.6-21.8-20.2c-30.1,8-7.8-87.9-20.2-131.8
	c-12.7-40.2-17.4,3.4-30.1,20.1C490.9,58,463,3.9,449,63.3c-12.7,39.7-17.5-19.3-30.2,9.2c-12.7,28-8.4,48.1-21.2,25
	c-12.7-22.7-55.9,43-68.6,9s-6.7-65.4-19.4-65.4s-25.4,0-38.1-5.6c-12.7-6.1-25.4-16.7-38.2,0c-12.7,17.4-25.4,62.1-31.8,85.2
	l-4.8,17.3c-1,3.4-1.5,8.2-1.5,13.2v110.1c0,10.1,2.2,18.2,4.8,18.2h1.5c6.4,0,30.8,44.5,43.5,44.5c12.7,0,35.2-16,48-16
	c12.8,0,41.3-6,54-6s9.3-3,22-3s11.4-30.9,16.8-19.5c54.1,114.6,34.2,15.4,38.1,0c11.7-45.7,46.5,3,71.1,21.5
	c10.2,7.6,5.5-64.9,56-33c41.8,26.5,40-2,10,35c-8,9.9,2.7-23.5,9.1-23.5l0,0c3.5,0,4.3-38.5,4.2-53c0-0.4-0.6,25.8-0.5,25.5
	l2.6-68.9C576.7,179.3,576.4,175.6,575.8,172.5z"/>
</svg>
